<?xml version="1.0" encoding="UTF-8" standalone="no"?>
<!DOCTYPE svg PUBLIC "-//W3C//DTD SVG 1.1//EN"
 "http://www.w3.org/Graphics/SVG/1.1/DTD/svg11.dtd">
<!-- Generated by graphviz version 2.43.0 (0)
 -->
<!-- Title: NYC_Taxi_POC Pages: 1 -->
<svg width="3257pt" height="384pt"
 viewBox="0.00 0.00 3257.00 384.00" xmlns="http://www.w3.org/2000/svg" xmlns:xlink="http://www.w3.org/1999/xlink">
<g id="graph0" class="graph" transform="scale(1 1) rotate(0) translate(4 380)">
<title>NYC_Taxi_POC</title>
<polygon fill="white" stroke="transparent" points="-4,4 -4,-380 3253,-380 3253,4 -4,4"/>
<g id="clust1" class="cluster">
<title>cluster_ingest</title>
<path fill="none" stroke="#b3b6b7" d="M20,-156C20,-156 445,-156 445,-156 451,-156 457,-162 457,-168 457,-168 457,-231 457,-231 457,-237 451,-243 445,-243 445,-243 20,-243 20,-243 14,-243 8,-237 8,-231 8,-231 8,-168 8,-168 8,-162 14,-156 20,-156"/>
<text text-anchor="middle" x="104" y="-227.8" font-family="Helvetica,sans-Serif" font-size="14.00">Data Ingestion &amp; Storage</text>
</g>
<g id="clust2" class="cluster">
<title>cluster_glue</title>
<path fill="none" stroke="#b3b6b7" d="M664,-281C664,-281 1248,-281 1248,-281 1254,-281 1260,-287 1260,-293 1260,-293 1260,-356 1260,-356 1260,-362 1254,-368 1248,-368 1248,-368 664,-368 664,-368 658,-368 652,-362 652,-356 652,-356 652,-293 652,-293 652,-287 658,-281 664,-281"/>
<text text-anchor="middle" x="737" y="-352.8" font-family="Helvetica,sans-Serif" font-size="14.00">Metadata &amp; Discovery</text>
</g>
<g id="clust3" class="cluster">
<title>cluster_transform</title>
<path fill="none" stroke="#b3b6b7" d="M640,-186C640,-186 1239,-186 1239,-186 1245,-186 1251,-192 1251,-198 1251,-198 1251,-261 1251,-261 1251,-267 1245,-273 1239,-273 1239,-273 640,-273 640,-273 634,-273 628,-267 628,-261 628,-261 628,-198 628,-198 628,-192 634,-186 640,-186"/>
<text text-anchor="middle" x="743" y="-257.8" font-family="Helvetica,sans-Serif" font-size="14.00">Transform (Optional POC Step)</text>
</g>
<g id="clust4" class="cluster">
<title>cluster_athena</title>
<path fill="none" stroke="#b3b6b7" d="M1440,-178C1440,-178 1927,-178 1927,-178 1933,-178 1939,-184 1939,-190 1939,-190 1939,-273 1939,-273 1939,-279 1933,-285 1927,-285 1927,-285 1440,-285 1440,-285 1434,-285 1428,-279 1428,-273 1428,-273 1428,-190 1428,-190 1428,-184 1434,-178 1440,-178"/>
<text text-anchor="middle" x="1519.5" y="-269.8" font-family="Helvetica,sans-Serif" font-size="14.00">Interactive SQL &amp; Views</text>
</g>
<g id="clust5" class="cluster">
<title>cluster_sagemaker</title>
<path fill="none" stroke="#b3b6b7" d="M1770,-93C1770,-93 2509.5,-93 2509.5,-93 2515.5,-93 2521.5,-99 2521.5,-105 2521.5,-105 2521.5,-158 2521.5,-158 2521.5,-164 2515.5,-170 2509.5,-170 2509.5,-170 1770,-170 1770,-170 1764,-170 1758,-164 1758,-158 1758,-158 1758,-105 1758,-105 1758,-99 1764,-93 1770,-93"/>
<text text-anchor="middle" x="1863.5" y="-154.8" font-family="Helvetica,sans-Serif" font-size="14.00">Model Training &amp; Evaluation</text>
</g>
<g id="clust6" class="cluster">
<title>cluster_bi</title>
<path fill="none" stroke="#b3b6b7" d="M2671,-122C2671,-122 3229,-122 3229,-122 3235,-122 3241,-128 3241,-134 3241,-134 3241,-189 3241,-189 3241,-195 3235,-201 3229,-201 3229,-201 2671,-201 2671,-201 2665,-201 2659,-195 2659,-189 2659,-189 2659,-134 2659,-134 2659,-128 2665,-122 2671,-122"/>
<text text-anchor="middle" x="2750" y="-185.8" font-family="Helvetica,sans-Serif" font-size="14.00">Analytics &amp; Dashboards</text>
</g>
<g id="clust7" class="cluster">
<title>cluster_realtime</title>
<path fill="none" stroke="#b3b6b7" d="M2373,-8C2373,-8 2850,-8 2850,-8 2856,-8 2862,-14 2862,-20 2862,-20 2862,-73 2862,-73 2862,-79 2856,-85 2850,-85 2850,-85 2373,-85 2373,-85 2367,-85 2361,-79 2361,-73 2361,-73 2361,-20 2361,-20 2361,-14 2367,-8 2373,-8"/>
<text text-anchor="middle" x="2452" y="-69.8" font-family="Helvetica,sans-Serif" font-size="14.00">(Optional) Real&#45;time API</text>
</g>
<!-- nyc_tlc -->
<g id="node1" class="node">
<title>nyc_tlc</title>
<path fill="#5d6d7e" stroke="#5d6d7e" d="M126,-202C126,-202 28,-202 28,-202 22,-202 16,-196 16,-190 16,-190 16,-176 16,-176 16,-170 22,-164 28,-164 28,-164 126,-164 126,-164 132,-164 138,-170 138,-176 138,-176 138,-190 138,-190 138,-196 132,-202 126,-202"/>
<text text-anchor="middle" x="77" y="-186.8" font-family="Times,serif" font-size="14.00" fill="white">NYC TLC Trips</text>
<text text-anchor="middle" x="77" y="-171.8" font-family="Times,serif" font-size="14.00" fill="white">(Parquet/CSV)</text>
</g>
<!-- s3_raw -->
<g id="node2" class="node">
<title>s3_raw</title>
<path fill="#2e86c1" stroke="#2e86c1" d="M437,-202C437,-202 301,-202 301,-202 295,-202 289,-196 289,-190 289,-190 289,-176 289,-176 289,-170 295,-164 301,-164 301,-164 437,-164 437,-164 443,-164 449,-170 449,-176 449,-176 449,-190 449,-190 449,-196 443,-202 437,-202"/>
<text text-anchor="middle" x="369" y="-186.8" font-family="Times,serif" font-size="14.00" fill="white">Amazon S3</text>
<text text-anchor="middle" x="369" y="-171.8" font-family="Times,serif" font-size="14.00" fill="white">s3://.../raw (landing)</text>
</g>
<!-- nyc_tlc&#45;&gt;s3_raw -->
<g id="edge1" class="edge">
<title>nyc_tlc&#45;&gt;s3_raw</title>
<path fill="none" stroke="black" d="M138.09,-183C178.73,-183 233.11,-183 278.79,-183"/>
<polygon fill="black" stroke="black" points="278.99,-186.5 288.99,-183 278.99,-179.5 278.99,-186.5"/>
<text text-anchor="middle" x="213.5" y="-201.8" font-family="Times,serif" font-size="14.00">Upload monthly</text>
<text text-anchor="middle" x="213.5" y="-186.8" font-family="Times,serif" font-size="14.00">Parquet/CSV</text>
</g>
<!-- glue_crawler -->
<g id="node3" class="node">
<title>glue_crawler</title>
<path fill="#ca6f1e" stroke="#ca6f1e" d="M797,-325C797,-325 672,-325 672,-325 666,-325 660,-319 660,-313 660,-313 660,-301 660,-301 660,-295 666,-289 672,-289 672,-289 797,-289 797,-289 803,-289 809,-295 809,-301 809,-301 809,-313 809,-313 809,-319 803,-325 797,-325"/>
<text text-anchor="middle" x="734.5" y="-303.3" font-family="Times,serif" font-size="14.00" fill="white">AWS Glue Crawler</text>
</g>
<!-- s3_raw&#45;&gt;glue_crawler -->
<g id="edge3" class="edge">
<title>s3_raw&#45;&gt;glue_crawler</title>
<path fill="none" stroke="black" d="M416.18,-202.15C432.2,-208.64 450.33,-215.81 467,-222 537.88,-248.34 555.83,-254.43 628,-277 637.78,-280.06 648.11,-283.16 658.32,-286.14"/>
<polygon fill="black" stroke="black" points="657.48,-289.54 668.06,-288.97 659.43,-282.82 657.48,-289.54"/>
<text text-anchor="middle" x="542.5" y="-276.8" font-family="Times,serif" font-size="14.00">Crawls S3 paths</text>
</g>
<!-- athena_ctas -->
<g id="node6" class="node">
<title>athena_ctas</title>
<path fill="#138d75" stroke="#138d75" d="M821,-232C821,-232 648,-232 648,-232 642,-232 636,-226 636,-220 636,-220 636,-206 636,-206 636,-200 642,-194 648,-194 648,-194 821,-194 821,-194 827,-194 833,-200 833,-206 833,-206 833,-220 833,-220 833,-226 827,-232 821,-232"/>
<text text-anchor="middle" x="734.5" y="-216.8" font-family="Times,serif" font-size="14.00" fill="white">Athena CTAS / PySpark</text>
<text text-anchor="middle" x="734.5" y="-201.8" font-family="Times,serif" font-size="14.00" fill="white">Column prune, partitions</text>
</g>
<!-- s3_raw&#45;&gt;athena_ctas -->
<g id="edge4" class="edge">
<title>s3_raw&#45;&gt;athena_ctas</title>
<path fill="none" stroke="black" d="M449.32,-189.55C501.05,-193.82 569.22,-199.44 625.82,-204.11"/>
<polygon fill="black" stroke="black" points="625.63,-207.61 635.89,-204.94 626.21,-200.63 625.63,-207.61"/>
<text text-anchor="middle" x="542.5" y="-206.8" font-family="Times,serif" font-size="14.00">CTAS / Job reads raw</text>
</g>
<!-- athena -->
<g id="node7" class="node">
<title>athena</title>
<path fill="#117a65" stroke="#117a65" d="M1552,-231C1552,-231 1448,-231 1448,-231 1442,-231 1436,-225 1436,-219 1436,-219 1436,-207 1436,-207 1436,-201 1442,-195 1448,-195 1448,-195 1552,-195 1552,-195 1558,-195 1564,-201 1564,-207 1564,-207 1564,-219 1564,-219 1564,-225 1558,-231 1552,-231"/>
<text text-anchor="middle" x="1500" y="-209.3" font-family="Times,serif" font-size="14.00" fill="white">Amazon Athena</text>
</g>
<!-- s3_raw&#45;&gt;athena -->
<g id="edge9" class="edge">
<title>s3_raw&#45;&gt;athena</title>
<path fill="none" stroke="black" d="M449.21,-178.19C574.01,-171.27 824.02,-160.07 1036,-167 1137.94,-170.34 1163.5,-171.96 1265,-182 1318.84,-187.32 1379.38,-195.4 1425.39,-201.98"/>
<polygon fill="black" stroke="black" points="1425.17,-205.48 1435.57,-203.44 1426.17,-198.55 1425.17,-205.48"/>
<text text-anchor="middle" x="943.5" y="-170.8" font-family="Times,serif" font-size="14.00">Query Raw (CSV/Parquet)</text>
</g>
<!-- sm_train -->
<g id="node9" class="node">
<title>sm_train</title>
<path fill="#6c3483" stroke="#6c3483" d="M1943,-139C1943,-139 1778,-139 1778,-139 1772,-139 1766,-133 1766,-127 1766,-127 1766,-113 1766,-113 1766,-107 1772,-101 1778,-101 1778,-101 1943,-101 1943,-101 1949,-101 1955,-107 1955,-113 1955,-113 1955,-127 1955,-127 1955,-133 1949,-139 1943,-139"/>
<text text-anchor="middle" x="1860.5" y="-123.8" font-family="Times,serif" font-size="14.00" fill="white">SageMaker Training Job</text>
<text text-anchor="middle" x="1860.5" y="-108.8" font-family="Times,serif" font-size="14.00" fill="white">(Built&#45;in XGBoost)</text>
</g>
<!-- s3_raw&#45;&gt;sm_train -->
<g id="edge12" class="edge">
<title>s3_raw&#45;&gt;sm_train</title>
<path fill="none" stroke="black" d="M438.4,-163.93C511.01,-145.38 629.42,-120 733.5,-120 733.5,-120 733.5,-120 1501,-120 1586.72,-120 1683.97,-120 1755.53,-120"/>
<polygon fill="black" stroke="black" points="1755.9,-123.5 1765.9,-120 1755.9,-116.5 1755.9,-123.5"/>
<text text-anchor="middle" x="1159.5" y="-123.8" font-family="Times,serif" font-size="14.00">Train/Val CSV from POC code</text>
</g>
<!-- glue_catalog -->
<g id="node4" class="node">
<title>glue_catalog</title>
<path fill="#ca6f1e" stroke="#ca6f1e" d="M1240,-327C1240,-327 1079,-327 1079,-327 1073,-327 1067,-321 1067,-315 1067,-315 1067,-301 1067,-301 1067,-295 1073,-289 1079,-289 1079,-289 1240,-289 1240,-289 1246,-289 1252,-295 1252,-301 1252,-301 1252,-315 1252,-315 1252,-321 1246,-327 1240,-327"/>
<text text-anchor="middle" x="1159.5" y="-311.8" font-family="Times,serif" font-size="14.00" fill="white">AWS Glue Data Catalog</text>
<text text-anchor="middle" x="1159.5" y="-296.8" font-family="Times,serif" font-size="14.00" fill="white">(Database &amp; Tables)</text>
</g>
<!-- glue_crawler&#45;&gt;glue_catalog -->
<g id="edge2" class="edge">
<title>glue_crawler&#45;&gt;glue_catalog</title>
<path fill="none" stroke="black" d="M809.18,-307.17C877.71,-307.34 980.42,-307.58 1056.75,-307.76"/>
<polygon fill="black" stroke="black" points="1056.86,-311.26 1066.87,-307.78 1056.88,-304.26 1056.86,-311.26"/>
<text text-anchor="middle" x="943.5" y="-325.8" font-family="Times,serif" font-size="14.00">Creates/Updates</text>
<text text-anchor="middle" x="943.5" y="-310.8" font-family="Times,serif" font-size="14.00">Table Schema</text>
</g>
<!-- glue_catalog&#45;&gt;athena -->
<g id="edge7" class="edge">
<title>glue_catalog&#45;&gt;athena</title>
<path fill="none" stroke="black" d="M1234.89,-288.94C1245.19,-285.44 1255.49,-281.46 1265,-277 1273.71,-272.92 1274.07,-268.55 1283,-265 1339.56,-242.52 1359.12,-257.43 1418,-242 1426.2,-239.85 1434.75,-237.23 1443.09,-234.45"/>
<polygon fill="black" stroke="black" points="1444.43,-237.69 1452.75,-231.13 1442.16,-231.07 1444.43,-237.69"/>
<text text-anchor="middle" x="1350.5" y="-283.8" font-family="Times,serif" font-size="14.00">Catalog Tables</text>
<text text-anchor="middle" x="1350.5" y="-268.8" font-family="Times,serif" font-size="14.00">(DB, Tables)</text>
</g>
<!-- glue_catalog&#45;&gt;athena -->
<g id="edge19" class="edge">
<title>glue_catalog&#45;&gt;athena</title>
<path fill="none" stroke="black" d="M1252.14,-319.16C1303.09,-321.57 1366.42,-318.09 1418,-295 1444.41,-283.18 1466.83,-258.55 1481.34,-239.35"/>
<polygon fill="black" stroke="black" points="1484.18,-241.39 1487.25,-231.25 1478.53,-237.26 1484.18,-241.39"/>
</g>
<!-- s3_gold -->
<g id="node5" class="node">
<title>s3_gold</title>
<path fill="#2e86c1" stroke="#2e86c1" d="M1231,-232C1231,-232 1088,-232 1088,-232 1082,-232 1076,-226 1076,-220 1076,-220 1076,-206 1076,-206 1076,-200 1082,-194 1088,-194 1088,-194 1231,-194 1231,-194 1237,-194 1243,-200 1243,-206 1243,-206 1243,-220 1243,-220 1243,-226 1237,-232 1231,-232"/>
<text text-anchor="middle" x="1159.5" y="-216.8" font-family="Times,serif" font-size="14.00" fill="white">Amazon S3</text>
<text text-anchor="middle" x="1159.5" y="-201.8" font-family="Times,serif" font-size="14.00" fill="white">s3://.../gold (Parquet)</text>
</g>
<!-- s3_gold&#45;&gt;athena -->
<g id="edge8" class="edge">
<title>s3_gold&#45;&gt;athena</title>
<path fill="none" stroke="black" d="M1243.2,-212.23C1256.51,-212.14 1270.13,-212.05 1283,-212 1343,-211.76 1358,-211.63 1418,-212 1420.52,-212.02 1423.09,-212.03 1425.68,-212.05"/>
<polygon fill="black" stroke="black" points="1425.74,-215.55 1435.77,-212.14 1425.8,-208.56 1425.74,-215.55"/>
<text text-anchor="middle" x="1350.5" y="-230.8" font-family="Times,serif" font-size="14.00">Query Parquet</text>
<text text-anchor="middle" x="1350.5" y="-215.8" font-family="Times,serif" font-size="14.00">(Partition Pruning)</text>
</g>
<!-- athena_ctas&#45;&gt;s3_gold -->
<g id="edge5" class="edge">
<title>athena_ctas&#45;&gt;s3_gold</title>
<path fill="none" stroke="black" d="M833.08,-213C902.93,-213 996.42,-213 1065.27,-213"/>
<polygon fill="black" stroke="black" points="1065.67,-216.5 1075.67,-213 1065.67,-209.5 1065.67,-216.5"/>
<text text-anchor="middle" x="943.5" y="-231.8" font-family="Times,serif" font-size="14.00">Write partitioned Parquet</text>
<text text-anchor="middle" x="943.5" y="-216.8" font-family="Times,serif" font-size="14.00">by year/month</text>
</g>
<!-- views -->
<g id="node8" class="node">
<title>views</title>
<path fill="#117a65" stroke="#117a65" d="M1919,-254C1919,-254 1802,-254 1802,-254 1796,-254 1790,-248 1790,-242 1790,-242 1790,-198 1790,-198 1790,-192 1796,-186 1802,-186 1802,-186 1919,-186 1919,-186 1925,-186 1931,-192 1931,-198 1931,-198 1931,-242 1931,-242 1931,-248 1925,-254 1919,-254"/>
<text text-anchor="middle" x="1860.5" y="-238.8" font-family="Times,serif" font-size="14.00" fill="white">BI Views</text>
<text text-anchor="middle" x="1860.5" y="-223.8" font-family="Times,serif" font-size="14.00" fill="white">(trips_by_hour,</text>
<text text-anchor="middle" x="1860.5" y="-208.8" font-family="Times,serif" font-size="14.00" fill="white">pu_by_zone_hour,</text>
<text text-anchor="middle" x="1860.5" y="-193.8" font-family="Times,serif" font-size="14.00" fill="white">eta_errors)</text>
</g>
<!-- athena&#45;&gt;views -->
<g id="edge6" class="edge">
<title>athena&#45;&gt;views</title>
<path fill="none" stroke="black" d="M1564.27,-214.24C1624.28,-215.41 1714.67,-217.17 1779.62,-218.44"/>
<polygon fill="black" stroke="black" points="1779.76,-221.94 1789.82,-218.64 1779.89,-214.94 1779.76,-221.94"/>
<text text-anchor="middle" x="1665" y="-220.8" font-family="Times,serif" font-size="14.00">CREATE VIEW</text>
</g>
<!-- athena&#45;&gt;sm_train -->
<g id="edge13" class="edge">
<title>athena&#45;&gt;sm_train</title>
<path fill="none" stroke="black" stroke-dasharray="5,2" d="M1564.27,-196.59C1623.25,-181.29 1711.6,-158.37 1776.28,-141.59"/>
<polygon fill="black" stroke="black" points="1777.24,-144.95 1786.05,-139.06 1775.49,-138.18 1777.24,-144.95"/>
<text text-anchor="middle" x="1665" y="-193.8" font-family="Times,serif" font-size="14.00">(Optional) Feature SQL</text>
</g>
<!-- tableau -->
<g id="node13" class="node">
<title>tableau</title>
<path fill="#117a65" stroke="#117a65" d="M3221,-170C3221,-170 3078,-170 3078,-170 3072,-170 3066,-164 3066,-158 3066,-158 3066,-144 3066,-144 3066,-138 3072,-132 3078,-132 3078,-132 3221,-132 3221,-132 3227,-132 3233,-138 3233,-144 3233,-144 3233,-158 3233,-158 3233,-164 3227,-170 3221,-170"/>
<text text-anchor="middle" x="3149.5" y="-154.8" font-family="Times,serif" font-size="14.00" fill="white">Tableau</text>
<text text-anchor="middle" x="3149.5" y="-139.8" font-family="Times,serif" font-size="14.00" fill="white">(ODBC/JDBC or CSV)</text>
</g>
<!-- views&#45;&gt;tableau -->
<g id="edge15" class="edge">
<title>views&#45;&gt;tableau</title>
<path fill="none" stroke="black" d="M1931.09,-210.24C1984.45,-203.59 2059.98,-196 2126.5,-196 2126.5,-196 2126.5,-196 2796.5,-196 2884.87,-196 2984.73,-181.87 3055.45,-169.45"/>
<polygon fill="black" stroke="black" points="3056.44,-172.83 3065.67,-167.63 3055.21,-165.94 3056.44,-172.83"/>
<text text-anchor="middle" x="2442" y="-199.8" font-family="Times,serif" font-size="14.00">Connect via Athena</text>
</g>
<!-- views&#45;&gt;tableau -->
<g id="edge20" class="edge">
<title>views&#45;&gt;tableau</title>
<path fill="none" stroke="black" d="M1931.15,-227.73C1984.53,-232.99 2060.08,-239 2126.5,-239 2126.5,-239 2126.5,-239 2796.5,-239 2910.21,-239 2938.91,-224.09 3048,-192 3064.47,-187.16 3081.94,-180.57 3097.62,-174.09"/>
<polygon fill="black" stroke="black" points="3099.27,-177.2 3107.12,-170.09 3096.55,-170.74 3099.27,-177.2"/>
</g>
<!-- sm_model -->
<g id="node10" class="node">
<title>sm_model</title>
<path fill="#6c3483" stroke="#6c3483" d="M2194,-139C2194,-139 2061,-139 2061,-139 2055,-139 2049,-133 2049,-127 2049,-127 2049,-113 2049,-113 2049,-107 2055,-101 2061,-101 2061,-101 2194,-101 2194,-101 2200,-101 2206,-107 2206,-113 2206,-113 2206,-127 2206,-127 2206,-133 2200,-139 2194,-139"/>
<text text-anchor="middle" x="2127.5" y="-123.8" font-family="Times,serif" font-size="14.00" fill="white">Model Artifact</text>
<text text-anchor="middle" x="2127.5" y="-108.8" font-family="Times,serif" font-size="14.00" fill="white">(model.tar.gz in S3)</text>
</g>
<!-- sm_train&#45;&gt;sm_model -->
<g id="edge10" class="edge">
<title>sm_train&#45;&gt;sm_model</title>
<path fill="none" stroke="black" d="M1955.3,-120C1982.37,-120 2011.79,-120 2038.49,-120"/>
<polygon fill="black" stroke="black" points="2038.58,-123.5 2048.58,-120 2038.58,-116.5 2038.58,-123.5"/>
<text text-anchor="middle" x="2002" y="-123.8" font-family="Times,serif" font-size="14.00">Outputs</text>
</g>
<!-- local_infer -->
<g id="node11" class="node">
<title>local_infer</title>
<path fill="#6c3483" stroke="#6c3483" d="M2501.5,-139C2501.5,-139 2382.5,-139 2382.5,-139 2376.5,-139 2370.5,-133 2370.5,-127 2370.5,-127 2370.5,-113 2370.5,-113 2370.5,-107 2376.5,-101 2382.5,-101 2382.5,-101 2501.5,-101 2501.5,-101 2507.5,-101 2513.5,-107 2513.5,-113 2513.5,-113 2513.5,-127 2513.5,-127 2513.5,-133 2507.5,-139 2501.5,-139"/>
<text text-anchor="middle" x="2442" y="-123.8" font-family="Times,serif" font-size="14.00" fill="white">Local Inference</text>
<text text-anchor="middle" x="2442" y="-108.8" font-family="Times,serif" font-size="14.00" fill="white">(xgboost.Booster)</text>
</g>
<!-- sm_model&#45;&gt;local_infer -->
<g id="edge11" class="edge">
<title>sm_model&#45;&gt;local_infer</title>
<path fill="none" stroke="black" d="M2206.15,-120C2253.05,-120 2312.73,-120 2360.19,-120"/>
<polygon fill="black" stroke="black" points="2360.43,-123.5 2370.43,-120 2360.43,-116.5 2360.43,-123.5"/>
<text text-anchor="middle" x="2287.5" y="-123.8" font-family="Times,serif" font-size="14.00">Download &amp; Load</text>
</g>
<!-- lambda_fn -->
<g id="node14" class="node">
<title>lambda_fn</title>
<path fill="#138d75" stroke="#138d75" d="M2503,-54C2503,-54 2381,-54 2381,-54 2375,-54 2369,-48 2369,-42 2369,-42 2369,-28 2369,-28 2369,-22 2375,-16 2381,-16 2381,-16 2503,-16 2503,-16 2509,-16 2515,-22 2515,-28 2515,-28 2515,-42 2515,-42 2515,-48 2509,-54 2503,-54"/>
<text text-anchor="middle" x="2442" y="-38.8" font-family="Times,serif" font-size="14.00" fill="white">AWS Lambda</text>
<text text-anchor="middle" x="2442" y="-23.8" font-family="Times,serif" font-size="14.00" fill="white">Inference Handler</text>
</g>
<!-- sm_model&#45;&gt;lambda_fn -->
<g id="edge17" class="edge">
<title>sm_model&#45;&gt;lambda_fn</title>
<path fill="none" stroke="black" stroke-dasharray="5,2" d="M2198.63,-100.92C2246.88,-87.8 2311.06,-70.34 2361.26,-56.69"/>
<polygon fill="black" stroke="black" points="2362.37,-60.01 2371.1,-54.01 2360.53,-53.26 2362.37,-60.01"/>
<text text-anchor="middle" x="2287.5" y="-95.8" font-family="Times,serif" font-size="14.00">Bundle model</text>
</g>
<!-- errors_csv -->
<g id="node12" class="node">
<title>errors_csv</title>
<path fill="#2e86c1" stroke="#2e86c1" d="M2912,-168C2912,-168 2679,-168 2679,-168 2673,-168 2667,-162 2667,-156 2667,-156 2667,-142 2667,-142 2667,-136 2673,-130 2679,-130 2679,-130 2912,-130 2912,-130 2918,-130 2924,-136 2924,-142 2924,-142 2924,-156 2924,-156 2924,-162 2918,-168 2912,-168"/>
<text text-anchor="middle" x="2795.5" y="-152.8" font-family="Times,serif" font-size="14.00" fill="white">S3: eta_errors_model_sample.csv</text>
<text text-anchor="middle" x="2795.5" y="-137.8" font-family="Times,serif" font-size="14.00" fill="white">+ eta_predictions_for_tableau.csv</text>
</g>
<!-- local_infer&#45;&gt;errors_csv -->
<g id="edge14" class="edge">
<title>local_infer&#45;&gt;errors_csv</title>
<path fill="none" stroke="black" d="M2513.71,-125.83C2554.69,-129.21 2607.71,-133.59 2656.61,-137.62"/>
<polygon fill="black" stroke="black" points="2656.41,-141.12 2666.66,-138.45 2656.98,-134.14 2656.41,-141.12"/>
<text text-anchor="middle" x="2591" y="-139.8" font-family="Times,serif" font-size="14.00">Write CSV to S3</text>
</g>
<!-- errors_csv&#45;&gt;tableau -->
<g id="edge16" class="edge">
<title>errors_csv&#45;&gt;tableau</title>
<path fill="none" stroke="black" d="M2924.12,-148.51C2963.82,-148.49 3007.72,-148.6 3048,-149 3050.56,-149.03 3053.15,-149.05 3055.77,-149.09"/>
<polygon fill="black" stroke="black" points="3055.91,-152.59 3065.96,-149.23 3056.01,-145.59 3055.91,-152.59"/>
<text text-anchor="middle" x="2995" y="-152.8" font-family="Times,serif" font-size="14.00">Download CSV</text>
</g>
<!-- errors_csv&#45;&gt;tableau -->
<g id="edge21" class="edge">
<title>errors_csv&#45;&gt;tableau</title>
<path fill="none" stroke="black" d="M2924.19,-162.91C2930.21,-163.33 2936.17,-163.7 2942,-164 2989.05,-166.42 3000.99,-167.03 3048,-164 3050.53,-163.84 3053.1,-163.65 3055.69,-163.44"/>
<polygon fill="black" stroke="black" points="3056.11,-166.92 3065.77,-162.56 3055.5,-159.95 3056.11,-166.92"/>
</g>
<!-- api_gw -->
<g id="node15" class="node">
<title>api_gw</title>
<path fill="#138d75" stroke="#138d75" d="M2842,-54C2842,-54 2749,-54 2749,-54 2743,-54 2737,-48 2737,-42 2737,-42 2737,-28 2737,-28 2737,-22 2743,-16 2749,-16 2749,-16 2842,-16 2842,-16 2848,-16 2854,-22 2854,-28 2854,-28 2854,-42 2854,-42 2854,-48 2848,-54 2842,-54"/>
<text text-anchor="middle" x="2795.5" y="-38.8" font-family="Times,serif" font-size="14.00" fill="white">API Gateway /</text>
<text text-anchor="middle" x="2795.5" y="-23.8" font-family="Times,serif" font-size="14.00" fill="white">Function URL</text>
</g>
<!-- lambda_fn&#45;&gt;api_gw -->
<g id="edge18" class="edge">
<title>lambda_fn&#45;&gt;api_gw</title>
<path fill="none" stroke="black" stroke-dasharray="5,2" d="M2515.4,-35C2577.43,-35 2666.1,-35 2726.75,-35"/>
<polygon fill="black" stroke="black" points="2726.98,-38.5 2736.98,-35 2726.98,-31.5 2726.98,-38.5"/>
<text text-anchor="middle" x="2591" y="-38.8" font-family="Times,serif" font-size="14.00">Serve ETA</text>
</g>
</g>
</svg>
